<svg xmlns="http://www.w3.org/2000/svg" viewBox="0 0 512 512">
  <rect width="512" height="512" rx="96" fill="#f8f8f8"/>
  <ellipse cx="250" cy="360" rx="150" ry="23" fill="#d8d8d8" opacity="0.55"/>
  <g stroke="#202326" stroke-linecap="round" stroke-linejoin="round">
    <rect x="288" y="151" width="152" height="157" rx="22" fill="#ffffff" stroke-width="15"/>
    <path d="M288 183h152v-15c0-10-8-18-18-18H306c-10 0-18 8-18 18v15Z" fill="#ff2f2f" stroke-width="15"/>
    <path d="M315 132v46M391 132v46M440 159v123" fill="none" stroke-width="18"/>
    <g fill="#202326" stroke-width="0">
      <rect x="320" y="225" width="22" height="18" rx="7"/>
      <rect x="361" y="225" width="22" height="18" rx="7"/>
      <rect x="401" y="225" width="22" height="18" rx="7"/>
      <rect x="320" y="263" width="22" height="18" rx="7"/>
      <rect x="361" y="263" width="22" height="18" rx="7"/>
      <rect x="401" y="263" width="22" height="18" rx="7"/>
    </g>
    <path d="M102 251h230" fill="none" stroke-width="34"/>
    <path d="M97 203c-34 0-52 26-52 76s18 76 52 76 52-26 52-76-18-76-52-76Z" fill="#262b2f" stroke-width="14"/>
    <path d="M151 194c-28 0-43 29-43 85s15 85 43 85 43-29 43-85-15-85-43-85Z" fill="#2f3438" stroke-width="14"/>
    <path d="M324 194c-28 0-43 29-43 85s15 85 43 85 43-29 43-85-15-85-43-85Z" fill="#2f3438" stroke-width="14"/>
    <path d="M368 207c-20 0-31 24-31 72s11 72 31 72 31-24 31-72-11-72-31-72Z" fill="#262b2f" stroke-width="14"/>
    <path d="M54 279h-17M416 279h-17" fill="none" stroke-width="22"/>
    <path d="M81 230c10-11 22-15 36-12M306 223c12-13 26-16 42-9" fill="none" stroke="#f5f5f5" stroke-width="9" opacity="0.75"/>
  </g>
</svg>
